<mxfile host="app.diagrams.net" modified="2023-06-08T15:46:56.658Z" agent="Mozilla/5.0 (X11; Linux x86_64) AppleWebKit/537.36 (KHTML, like Gecko) Chrome/114.0.0.0 Safari/537.36" version="21.3.7" etag="PLJlgp4uFHaTm0V5lSoF" type="github">
  <diagram name="PÃ¡gina-1" id="mfvKnYZf087BY7AugNC-">
    <mxGraphModel>
      <root>
        <mxCell id="0" />
        <mxCell id="1" parent="0" />
      </root>
    </mxGraphModel>
  </diagram>
</mxfile>
